<svg xmlns="http://www.w3.org/2000/svg" xmlns:xlink="http://www.w3.org/1999/xlink" width="411.23" height="405.169" viewBox="0 0 108.805 107.201">
    <defs>
        <linearGradient id="a">
            <stop offset="0" stop-color="#54f7ff"></stop>
            <stop offset="1" stop-color="#6ca1ff"></stop>
        </linearGradient>
        <linearGradient xlink:href="#a" id="b" x1="346.189" y1="344.706" x2="394.03" y2="394.419" gradientUnits="userSpaceOnUse" gradientTransform="translate(-122.142 -3.742)"></linearGradient>
    </defs>
    <g transform="translate(-169.523 -285.64)">
        <rect width="108.805" height="107.201" x="169.523" y="285.64" ry="32.695" fill="url(#b)" paint-order="stroke fill markers"></rect>
        <path d="M205.984 301.072c-.449.002-.88.023-1.3.048-.837.05-1.624.117-2.444.335a10.65 10.65 0 00-2.446 1.021 10.67 10.67 0 00-2.18 1.632 15.716 15.716 0 00-2.163 2.572 13.773 13.773 0 00-1.487 3.014c-.376 1.056-.65 2.16-.77 3.031s-.085 1.508.82 4.84c.907 3.333 2.686 9.362 3.575 12.376.791 2.683.883 2.98 1.061 3.356a5.34 5.34 0 00-1.273 1.184c-.363.45-.677.9-.955 1.516-.278.616-.52 1.398-.738 2.049-.218.651-.411 1.173-.508 3.754-.096 2.582-.097 7.223.049 10.302.145 3.079.435 4.595.991 6.276a29.061 29.061 0 002.273 5.092 20.964 20.964 0 003.095 4.145 38.958 38.958 0 003.966 3.6c1.233.97 2.2 1.586 3.373 2.225a30.917 30.917 0 003.99 1.836c1.439.532 2.938.935 4.34 1.257 1.402.322 2.66.554 4.038.684 1.379.13 2.853.155 4.123.142a38.04 38.04 0 003.289-.154 23.994 23.994 0 002.985-.461 28.237 28.237 0 003.071-.877c.992-.343 1.91-.722 2.926-1.243a35.526 35.526 0 003.277-1.942c1.148-.758 2.333-1.61 3.457-2.629 1.125-1.018 2.188-2.202 2.95-3.102.762-.9 1.221-1.516 1.802-2.38.58-.864 1.281-1.978 1.873-3.34a20.92 20.92 0 001.318-4.286c.022-.117.039-.23.056-.342a3.5 3.5 0 00.832-.091c.538-.133 1.067-.433 1.516-.783a6.17 6.17 0 001.177-1.24c.36-.486.708-1.056 1.034-1.724.327-.668.63-1.433.893-2.07.263-.635.485-1.141.706-1.761.22-.62.438-1.355.785-2.514.346-1.159.821-2.742 1.11-3.934.289-1.19.39-1.975.418-2.885.029-.91-.016-1.88-.114-2.653a9.62 9.62 0 00-.397-1.811 13.548 13.548 0 00-.51-1.337c-.203-.466-.45-1-.78-1.543a7.816 7.816 0 00-1.24-1.565 6.833 6.833 0 00-1.69-1.177 9.26 9.26 0 00-2.098-.724 12.563 12.563 0 00-2.432-.312c-.788-.017-1.493.069-1.981.07-.488 0-.757-.083-.98-.463-.221-.38-.396-1.057-.748-1.699-.352-.64-.767-1.239-1.326-1.734-.56-.496-1.091-.9-1.675-1.193a7.891 7.891 0 00-1.852-.654c-.675-.151-1.361-.173-1.994-.243.49-.597.624-1.132 1.074-2.168.581-1.34 1.333-3.584 1.573-5.493.239-1.909-.034-3.482-.376-4.805-.342-1.323-.752-2.395-1.453-3.434-.701-1.038-1.693-2.043-2.907-2.947-1.214-.904-2.65-1.708-4.052-2.144-1.402-.435-2.77-.502-4.018-.469-1.249.034-2.377.168-3.523.52-1.145.351-2.308.92-3.334 1.59-1.026.67-1.915 1.44-2.633 2.311s-1.265 1.842-1.643 2.668c-.377.825-.58 1.486-.768 1.971-.188.486-.359.788-.564.536-.205-.25-.444-1.055-.82-1.926a14.066 14.066 0 00-1.48-2.62c-.59-.812-1.29-1.533-2.228-2.24-.937-.709-2.208-1.47-3.354-1.955a10.914 10.914 0 00-3.18-.821c-.487-.05-.953-.067-1.402-.065zm.01 7.826a3.772 3.772 0 011.446.299 5.066 5.066 0 011.42.904c.378.338.674.703.803.863.13.16.129.16.979 2.847s2.55 8.062 3.588 11.152c1.038 3.089 1.428 3.92 1.934 4.51.507.588 1.156.99 1.819 1.13.663.141 1.339.021 1.92-.247a3.2 3.2 0 001.407-1.235c.318-.534.49-1.203.934-2.576.445-1.374 1.163-3.45 2-6.13.838-2.68 1.796-5.962 2.466-7.809.67-1.847 1.052-2.259 1.474-2.59.421-.333.882-.585 1.605-.762.724-.178 1.71-.28 2.621-.094.913.186 1.751.661 2.29 1.195.539.534.778 1.127.898 1.826.12.698.12 1.502.017 2.172-.103.67-.308 1.206-1.283 4.404-.974 3.199-2.718 9.06-3.59 11.99-.872 2.931-.872 2.931-1.163 2.83-.29-.1-.872-.3-4.702-.401-3.83-.1-10.908-.1-14.447-.1h-.583c-.257-.003-.65-.004-.884-.006-.858-.006-1.516-.016-2.082-.028l-.914-3.166c-.923-3.198-2.77-9.595-3.693-13.095-.924-3.5-.923-4.103-.712-4.795.21-.693.633-1.476 1.338-2.039.706-.564 1.693-.908 2.51-1.013.205-.027.4-.038.584-.037zm33.362 20.31c.283.005.561.032.81.09.495.118.87.365 1.237.63.367.267.726.552 1.026.878.299.327.538.695.674 1.055.137.36.172.712.095 1.298-.077.586-.265 1.407-.966 4.011s-1.915 6.992-2.71 9.41c-.796 2.417-1.174 2.865-1.499 3.2-.324.337-.597.56-.852.734a2.595 2.595 0 01-.827.39 5.39 5.39 0 01-1.203.163 5.012 5.012 0 01-1.297-.114 3.651 3.651 0 01-1.058-.444 4.967 4.967 0 01-.796-.616 13.35 13.35 0 01-.65-.657c-.188-.201-.342-.369-.273-.587.068-.217.358-.485.658-.728.299-.243.607-.46.932-.77a8.54 8.54 0 001.026-1.214c.359-.503.735-1.106.983-1.65.248-.544.367-1.03.419-1.583.051-.552.034-1.172-.01-1.825-.042-.653-.11-1.34-.298-1.942-.188-.603-.496-1.122-.744-1.55-.248-.426-.436-.761-.53-.93a.46.46 0 01-.043-.094c.36-.788.896-2.49 1.31-3.695.04-.116.076-.211.114-.32.12-.267.24-.525.362-.755.607-1.147 1.206-1.666 1.736-1.96.53-.292.992-.36 1.531-.4.27-.02.559-.032.842-.026zm10.493 6.798c2.016 0 3.65 1.6 3.65 3.575a3.5 3.5 0 01-.043.547c-.01.106-.026.218-.048.343-.126.738-.397 1.833-.642 2.694s-1.112 3.657-1.357 4.178c-.61 1.85-2.144 3.426-3.945 3.373-2.072 0-3.751-1.6-3.751-3.574 0-.43.081-.857.241-1.26.117-.778.53-2.043.97-3.336.454-1.332.933-2.688 1.172-3.366v-.001c.099-.28.157-.44.231-.54.433-1.554 1.876-2.633 3.522-2.633zm-26.075.837c3.377 0 3.377 0 3.634.05.256.05.77.151 1.248.386.479.234.923.603 1.282.938.36.335.633.636.821.988.188.351.29.753.333 1.13.043.377.026.728 0 1.105-.025.377-.06.779-.111 1.149-.052.37-.12.702-.282 1.028-.162.327-.419.645-.735.955-.317.31-.693.61-1.05.824-.357.214-.737.356-3.062.423-2.325.067-6.617.067-8.925.151-2.308.084-2.633.25-2.898.544-.265.293-.47.712-.53 1.122-.06.41.025.813.162 1.131.137.318.325.552.633.72.308.167.735.268 1.3.31.564.042 1.299.025 1.88.083a4.093 4.093 0 011.454.402c.427.21.837.494 1.179.754.342.26.616.494.898.787.282.293.573.645.786 1.105.214.46.35 1.03.394 1.91.043.878-.01 2.101.076 2.855.086.753.308 1.055.633 1.28.325.227.752.378 1.163.394.41.017.804-.1 1.094-.226.29-.126.479-.26.624-.419.145-.159.248-.343.282-1.273.035-.929 0-2.67-.128-3.742s-.35-1.507-.607-1.968c-.257-.46-.547-.946-.7-1.289-.155-.343-.172-.544.273-.645.445-.1 1.317-.1 1.75-.106.435-.005.387-.028.447.14.013.036.048.111.07.164.385 1.016 1.17 2.273 2.144 3.125 1.266 1.105 2.89 2.177 5.36 2.193 1.398.01 3.233-.395 4.51-1.237.265-.174.489-.381.695-.594.374-.29.57-.527.676-.679.05-.07.082-.12.124-.16h-.009c.244-.228.494-.4.792-.445.82-.121 1.084.795 1.683 1.384.459.452.979.817 1.405 1.085.02.02.048.041.066.062.29.326.29.611.042 1.306-.248.695-.743 1.8-1.145 2.62-.402.821-.71 1.357-1.12 1.918-.41.561-.923 1.147-1.483 1.754a36.205 36.205 0 01-1.783 1.813 17.518 17.518 0 01-1.897 1.558 17.19 17.19 0 01-2.557 1.515c-.983.469-2.094.87-3.257 1.206a32.122 32.122 0 01-3.463.786 23.907 23.907 0 01-3.188.327c-1.11.042-2.36.026-3.659-.142-1.299-.167-2.65-.485-3.908-.918-1.258-.432-2.452-.991-3.64-1.644a30.851 30.851 0 01-3.36-2.127c-.975-.72-1.727-1.406-2.36-2.143-.632-.737-1.145-1.524-1.778-2.57-.632-1.047-1.385-2.353-1.907-3.534-.521-1.18-.812-2.236-.966-5.016-.154-2.78-.17-7.285-.085-9.721.086-2.437.273-2.805.727-3.257.453-.452 1.171-.989 1.727-1.273.556-.285.949-.318 4.522-.335 3.574-.017 10.327-.017 13.704-.017z" fill="#2a292e"></path>
    </g>
</svg>
